<svg width="855" height="739" viewBox="0 0 855 739" fill="none" xmlns="http://www.w3.org/2000/svg">
<path d="M199.06 15.8301C203.33 15.8301 206.79 19.2901 206.79 23.5701C206.79 25.7001 205.92 27.6401 204.53 29.0301C203.13 30.4301 201.2 31.2901 199.07 31.2901H152.41C148.15 31.2901 144.68 27.8301 144.68 23.5601C144.68 21.4201 145.55 19.4901 146.94 18.0901C148.34 16.6901 150.28 15.8301 152.4 15.8301H199.06Z" fill="url(#paint0_linear_251_1566)"/>
<path d="M781.84 10.8896H565.82C565.01 10.8896 564.23 11.0197 563.49 11.2497H265.5H134.57H49.48C47.35 11.2497 45.41 12.1197 44.0201 13.5097C42.62 14.9097 41.7501 16.8497 41.7501 18.9697C41.7501 23.2397 45.2101 26.6996 49.4901 26.6996H76.5201C80.7801 26.6996 84.2501 30.1597 84.2501 34.4297C84.2501 36.5697 83.3801 38.5097 81.9901 39.8997C80.59 41.2997 78.6601 42.1597 76.5301 42.1597H53.6201C51.4801 42.1597 49.5501 43.0296 48.1501 44.4196C46.7501 45.8196 45.89 47.7497 45.89 49.8797C45.89 54.1497 49.35 57.6096 53.63 57.6096H98.13C102.4 57.6096 105.86 61.0697 105.86 65.3497C105.86 67.4897 104.99 69.4197 103.6 70.8197C102.2 72.2197 100.26 73.0797 98.14 73.0797H7.78006C5.64006 73.0797 3.71006 73.9497 2.31006 75.3397C0.910059 76.7397 0.0500488 78.6796 0.0500488 80.7997C0.0500488 85.0696 3.51004 88.5397 7.79004 88.5397H193.55C262.57 95.5897 316.42 153.89 316.42 224.78V224.79C316.42 300.42 255.1 361.74 179.47 361.74H152.78C135.82 361.74 125.64 380.58 134.94 394.77L163.47 438.34L316.43 671.88L353.86 729.03C365.47 746.76 393.04 738.54 393.04 717.33V575.32C393.04 499.68 454.36 438.36 529.99 438.36H574.81C586.59 438.36 596.14 428.81 596.14 417.03V383.09C596.14 371.31 586.59 361.76 574.81 361.76H508.66C444.8 361.76 393.04 309.99 393.04 246.14V203.47C393.04 139.62 444.8 87.8497 508.66 87.8497H521.8C522.54 88.0797 523.32 88.2097 524.13 88.2097H740.16C742.29 88.2097 744.23 87.3496 745.63 85.9496C747.03 84.5496 747.9 82.6096 747.9 80.4796C747.9 76.2096 744.43 72.7497 740.16 72.7497H713.13C708.86 72.7497 705.4 69.2897 705.4 65.0197C705.4 62.8797 706.27 60.9497 707.66 59.5497C709.06 58.1497 710.99 57.2797 713.13 57.2797H736.03C738.16 57.2797 740.1 56.4197 741.5 55.0197C742.9 53.6197 743.77 51.6897 743.77 49.5497C743.77 45.2797 740.3 41.8197 736.03 41.8197H691.53C687.26 41.8197 683.8 38.3597 683.8 34.0797C683.8 31.9496 684.67 30.0096 686.06 28.6096C687.46 27.2097 689.4 26.3497 691.53 26.3497H781.89C784.03 26.3497 785.96 25.4897 787.36 24.0897C788.76 22.6897 789.62 20.7497 789.62 18.6197C789.57 14.3597 786.11 10.8896 781.84 10.8896Z" fill="#231F20"/>
<path opacity="0.53" d="M781.84 10.8896H565.82C565.01 10.8896 564.23 11.0197 563.49 11.2497H265.5H134.57H49.48C47.35 11.2497 45.41 12.1197 44.0201 13.5097C42.62 14.9097 41.7501 16.8497 41.7501 18.9697C41.7501 23.2397 45.2101 26.6996 49.4901 26.6996H76.5201C80.7801 26.6996 84.2501 30.1597 84.2501 34.4297C84.2501 36.5697 83.3801 38.5097 81.9901 39.8997C80.59 41.2997 78.6601 42.1597 76.5301 42.1597H53.6201C51.4801 42.1597 49.5501 43.0296 48.1501 44.4196C46.7501 45.8196 45.89 47.7497 45.89 49.8797C45.89 54.1497 49.35 57.6096 53.63 57.6096H98.13C102.4 57.6096 105.86 61.0697 105.86 65.3497C105.86 67.4897 104.99 69.4197 103.6 70.8197C102.2 72.2197 100.26 73.0797 98.14 73.0797H7.78006C5.64006 73.0797 3.71006 73.9497 2.31006 75.3397C0.910059 76.7397 0.0500488 78.6796 0.0500488 80.7997C0.0500488 85.0696 3.51004 88.5397 7.79004 88.5397H193.55C262.57 95.5897 316.42 153.89 316.42 224.78V224.79C316.42 300.42 255.1 361.74 179.47 361.74H152.78C135.82 361.74 125.64 380.58 134.94 394.77L163.47 438.34L316.43 671.88L353.86 729.03C365.47 746.76 393.04 738.54 393.04 717.33V575.32C393.04 499.68 454.36 438.36 529.99 438.36H574.81C586.59 438.36 596.14 428.81 596.14 417.03V383.09C596.14 371.31 586.59 361.76 574.81 361.76H508.66C444.8 361.76 393.04 309.99 393.04 246.14V203.47C393.04 139.62 444.8 87.8497 508.66 87.8497H521.8C522.54 88.0797 523.32 88.2097 524.13 88.2097H740.16C742.29 88.2097 744.23 87.3496 745.63 85.9496C747.03 84.5496 747.9 82.6096 747.9 80.4796C747.9 76.2096 744.43 72.7497 740.16 72.7497H713.13C708.86 72.7497 705.4 69.2897 705.4 65.0197C705.4 62.8797 706.27 60.9497 707.66 59.5497C709.06 58.1497 710.99 57.2797 713.13 57.2797H736.03C738.16 57.2797 740.1 56.4197 741.5 55.0197C742.9 53.6197 743.77 51.6897 743.77 49.5497C743.77 45.2797 740.3 41.8197 736.03 41.8197H691.53C687.26 41.8197 683.8 38.3597 683.8 34.0797C683.8 31.9496 684.67 30.0096 686.06 28.6096C687.46 27.2097 689.4 26.3497 691.53 26.3497H781.89C784.03 26.3497 785.96 25.4897 787.36 24.0897C788.76 22.6897 789.62 20.7497 789.62 18.6197C789.57 14.3597 786.11 10.8896 781.84 10.8896Z" fill="#231F20"/>
<path d="M227.65 64.6997C227.65 66.8397 226.78 68.7697 225.39 70.1697C223.99 71.5697 222.06 72.4297 219.93 72.4297H195.34C191.08 72.4297 187.61 68.9697 187.61 64.6897C187.61 62.5497 188.48 60.6297 189.87 59.2297C191.27 57.8297 193.21 56.9697 195.33 56.9697H219.92C224.18 56.9697 227.65 60.4397 227.65 64.6997Z" fill="#231F20"/>
<path d="M781.84 10.8896H565.82C565.01 10.8896 564.23 11.0097 563.49 11.2497H49.48C47.35 11.2497 45.41 12.1197 44.01 13.5197C42.61 14.9197 41.74 16.8596 41.74 18.9796C41.74 23.2496 45.21 26.7197 49.48 26.7197H76.51C80.77 26.7197 84.24 30.1696 84.24 34.4496C84.24 36.5796 83.37 38.5196 81.97 39.9196C80.59 41.3196 78.64 42.1897 76.51 42.1897H53.6C51.47 42.1897 49.54 43.0397 48.13 44.4397C46.73 45.8497 45.88 47.7697 45.88 49.9097C45.88 54.1797 49.33 57.6396 53.61 57.6396H98.11C102.38 57.6396 105.84 61.1097 105.84 65.3797C105.84 67.5097 104.97 69.4397 103.59 70.8497C102.19 72.2497 100.25 73.0997 98.12 73.0997H7.76001C5.61001 73.0997 3.69001 73.9697 2.29001 75.3697C0.890009 76.7697 0.0200195 78.6997 0.0200195 80.8297C0.0200195 85.0996 3.49001 88.5697 7.76001 88.5697H193.52C193.57 88.5697 193.61 88.5897 193.66 88.5897H260.5C305.21 88.5897 393 116.49 393 246.15V203.47C393 139.61 444.76 87.8497 508.63 87.8497H521.76C522.49 88.0797 523.28 88.2097 524.09 88.2097H740.11C742.26 88.2097 744.18 87.3397 745.58 85.9397C746.98 84.5397 747.85 82.6096 747.85 80.4796C747.85 76.2096 744.38 72.7397 740.11 72.7397H713.08C708.82 72.7397 705.35 69.2897 705.35 65.0097C705.35 62.8797 706.22 60.9397 707.62 59.5397C709.02 58.1397 710.95 57.2697 713.08 57.2697H735.99C738.12 57.2697 740.06 56.4097 741.46 55.0197C742.86 53.6197 743.73 51.6897 743.73 49.5497C743.73 45.2896 740.26 41.8197 735.99 41.8197H691.49C687.22 41.8197 683.76 38.3497 683.76 34.0797C683.76 31.9496 684.63 30.0197 686.01 28.6197C687.42 27.2197 689.35 26.3497 691.48 26.3497H781.84C783.99 26.3497 785.91 25.4797 787.31 24.0997C788.71 22.6897 789.58 20.7597 789.58 18.6297C789.58 14.3597 786.11 10.8896 781.84 10.8896ZM135.35 34.4397C135.35 32.3097 136.22 30.3797 137.6 28.9697C139 27.5697 140.94 26.7197 143.07 26.7197H189.73C194 26.7197 197.46 30.1696 197.46 34.4496C197.46 36.5796 196.59 38.5196 195.19 39.9196C193.79 41.3196 191.86 42.1897 189.73 42.1897H143.07C138.81 42.1797 135.35 38.7097 135.35 34.4397ZM225.38 70.1797C223.98 71.5797 222.05 72.4496 219.92 72.4496H195.33C191.06 72.4496 187.6 68.9797 187.6 64.7097C187.6 62.5797 188.45 60.6497 189.85 59.2397C191.25 57.8597 193.19 56.9897 195.32 56.9897H219.91C224.17 56.9897 227.64 60.4597 227.64 64.7197C227.65 66.8297 226.78 68.7797 225.38 70.1797Z" fill="#231F20"/>
<path d="M821.63 88.5797C834.443 88.5797 844.83 78.1927 844.83 65.3797C844.83 52.5667 834.443 42.1797 821.63 42.1797C808.817 42.1797 798.43 52.5667 798.43 65.3797C798.43 78.1927 808.817 88.5797 821.63 88.5797Z" fill="#231F20"/>
<path d="M789.58 18.6299C789.58 20.7599 788.71 22.6899 787.31 24.0999C785.91 25.4799 783.98 26.3499 781.84 26.3499H691.48C689.35 26.3499 687.42 27.2199 686.01 28.6199C684.63 30.0199 683.76 31.9499 683.76 34.0799C683.76 38.3499 687.21 41.8199 691.49 41.8199H735.99C740.26 41.8199 743.73 45.2899 743.73 49.5499C743.73 51.6999 742.86 53.6199 741.46 55.0199C740.06 56.4199 738.12 57.2699 735.99 57.2699H713.08C710.95 57.2699 709.02 58.1399 707.62 59.5399C706.22 60.9399 705.35 62.8799 705.35 65.0099C705.35 69.2799 708.82 72.7399 713.08 72.7399H740.11C744.38 72.7399 747.85 76.2099 747.85 80.4799C747.85 82.6099 746.98 84.5399 745.58 85.9399C744.18 87.3399 742.25 88.2099 740.11 88.2099H524.08C523.27 88.2099 522.48 88.0899 521.75 87.8499H508.62C444.75 87.8499 392.99 139.61 392.99 203.47V246.14C392.99 116.48 305.2 88.5799 260.49 88.5799H193.65C193.6 88.5799 193.56 88.5599 193.51 88.5599H7.73999C3.46999 88.5599 0 85.0899 0 80.8199C0 78.6899 0.869989 76.7599 2.26999 75.3599C3.66999 73.9599 5.59999 73.0899 7.73999 73.0899H98.1C100.23 73.0899 102.17 72.2299 103.57 70.8399C104.95 69.4299 105.82 67.4999 105.82 65.3699C105.82 61.0999 102.37 57.6299 98.09 57.6299H53.59C49.32 57.6299 45.86 54.1799 45.86 49.8999C45.86 47.7499 46.71 45.8399 48.11 44.4299C49.52 43.0299 51.45 42.1799 53.58 42.1799H76.49C78.62 42.1799 80.56 41.3099 81.95 39.9099C83.35 38.5099 84.22 36.5699 84.22 34.4399C84.22 30.1699 80.75 26.7099 76.49 26.7099H49.48C45.21 26.7099 41.74 23.2399 41.74 18.9699C41.74 16.8599 42.61 14.9099 44.01 13.5099C45.41 12.1099 47.35 11.2399 49.48 11.2399H563.48C564.23 11.0099 565 10.8799 565.81 10.8799H781.83C786.11 10.8899 789.58 14.3599 789.58 18.6299Z" fill="#231F20"/>
<path d="M791.17 0.00976562H575.14C574.33 0.00976562 573.55 0.139751 572.81 0.369751H274.83H143.89H58.8001C56.6701 0.369751 54.7301 1.23976 53.3401 2.62976C51.9401 4.02976 51.0701 5.96975 51.0701 8.08975C51.0701 12.3598 54.5302 15.8198 58.8102 15.8198H85.8401C90.1002 15.8198 93.5701 19.2797 93.5701 23.5497C93.5701 25.6897 92.7001 27.6297 91.3102 29.0197C89.9101 30.4197 87.9801 31.2798 85.8501 31.2798H62.9501C60.8101 31.2798 58.8801 32.1498 57.4801 33.5398C56.0801 34.9398 55.2202 36.8698 55.2202 38.9998C55.2202 43.2698 58.6801 46.7297 62.9601 46.7297H107.46C111.73 46.7297 115.19 50.1898 115.19 54.4698C115.19 56.6098 114.32 58.5398 112.93 59.9398C111.53 61.3398 109.59 62.1997 107.47 62.1997H17.1101C14.9701 62.1997 13.0401 63.0697 11.6401 64.4597C10.2401 65.8597 9.38013 67.7997 9.38013 69.9197C9.38013 74.1897 12.8401 77.6598 17.1201 77.6598H202.88C271.9 84.7098 325.75 143.01 325.75 213.9V213.91C325.75 289.55 264.43 350.86 188.8 350.86H162.11C145.15 350.86 134.97 369.7 144.27 383.89L172.8 427.46L325.76 661L363.19 718.15C374.8 735.88 402.37 727.66 402.37 706.45V564.44C402.37 488.8 463.69 427.48 539.32 427.48H584.08C595.86 427.48 605.41 417.93 605.41 406.15V372.21C605.41 360.43 595.86 350.88 584.08 350.88H517.93C454.07 350.88 402.31 299.11 402.31 235.26V192.59C402.31 128.74 454.07 76.9698 517.93 76.9698H531.08C531.82 77.1998 532.6 77.3297 533.41 77.3297H749.44C751.57 77.3297 753.51 76.4698 754.91 75.0698C756.31 73.6698 757.18 71.7298 757.18 69.5998C757.18 65.3298 753.71 61.8698 749.44 61.8698H722.41C718.14 61.8698 714.68 58.4097 714.68 54.1397C714.68 51.9997 715.55 50.0697 716.94 48.6697C718.34 47.2697 720.27 46.3997 722.41 46.3997H745.31C747.44 46.3997 749.38 45.5397 750.78 44.1397C752.18 42.7397 753.05 40.8097 753.05 38.6697C753.05 34.3997 749.58 30.9398 745.31 30.9398H700.81C696.54 30.9398 693.08 27.4797 693.08 23.1997C693.08 21.0697 693.95 19.1297 695.34 17.7297C696.74 16.3297 698.68 15.4698 700.81 15.4698H791.17C793.31 15.4698 795.24 14.6097 796.64 13.2097C798.04 11.8097 798.9 9.86975 798.9 7.73975C798.9 3.47975 795.44 0.00976562 791.17 0.00976562Z" fill="url(#paint1_linear_251_1566)"/>
<path opacity="0.53" d="M791.17 0.00976562H575.14C574.33 0.00976562 573.55 0.139751 572.81 0.369751H274.83H143.89H58.8001C56.6701 0.369751 54.7301 1.23976 53.3401 2.62976C51.9401 4.02976 51.0701 5.96975 51.0701 8.08975C51.0701 12.3598 54.5302 15.8198 58.8102 15.8198H85.8401C90.1002 15.8198 93.5701 19.2797 93.5701 23.5497C93.5701 25.6897 92.7001 27.6297 91.3102 29.0197C89.9101 30.4197 87.9801 31.2798 85.8501 31.2798H62.9501C60.8101 31.2798 58.8801 32.1498 57.4801 33.5398C56.0801 34.9398 55.2202 36.8698 55.2202 38.9998C55.2202 43.2698 58.6801 46.7297 62.9601 46.7297H107.46C111.73 46.7297 115.19 50.1898 115.19 54.4698C115.19 56.6098 114.32 58.5398 112.93 59.9398C111.53 61.3398 109.59 62.1997 107.47 62.1997H17.1101C14.9701 62.1997 13.0401 63.0697 11.6401 64.4597C10.2401 65.8597 9.38013 67.7997 9.38013 69.9197C9.38013 74.1897 12.8401 77.6598 17.1201 77.6598H202.88C271.9 84.7098 325.75 143.01 325.75 213.9V213.91C325.75 289.55 264.43 350.86 188.8 350.86H162.11C145.15 350.86 134.97 369.7 144.27 383.89L172.8 427.46L325.76 661L363.19 718.15C374.8 735.88 402.37 727.66 402.37 706.45V564.44C402.37 488.8 463.69 427.48 539.32 427.48H584.08C595.86 427.48 605.41 417.93 605.41 406.15V372.21C605.41 360.43 595.86 350.88 584.08 350.88H517.93C454.07 350.88 402.31 299.11 402.31 235.26V192.59C402.31 128.74 454.07 76.9698 517.93 76.9698H531.08C531.82 77.1998 532.6 77.3297 533.41 77.3297H749.44C751.57 77.3297 753.51 76.4698 754.91 75.0698C756.31 73.6698 757.18 71.7298 757.18 69.5998C757.18 65.3298 753.71 61.8698 749.44 61.8698H722.41C718.14 61.8698 714.68 58.4097 714.68 54.1397C714.68 51.9997 715.55 50.0697 716.94 48.6697C718.34 47.2697 720.27 46.3997 722.41 46.3997H745.31C747.44 46.3997 749.38 45.5397 750.78 44.1397C752.18 42.7397 753.05 40.8097 753.05 38.6697C753.05 34.3997 749.58 30.9398 745.31 30.9398H700.81C696.54 30.9398 693.08 27.4797 693.08 23.1997C693.08 21.0697 693.95 19.1297 695.34 17.7297C696.74 16.3297 698.68 15.4698 700.81 15.4698H791.17C793.31 15.4698 795.24 14.6097 796.64 13.2097C798.04 11.8097 798.9 9.86975 798.9 7.73975C798.9 3.47975 795.44 0.00976562 791.17 0.00976562Z" fill="url(#paint2_linear_251_1566)"/>
<path d="M236.97 53.8199C236.97 55.9599 236.1 57.8899 234.71 59.2899C233.31 60.6899 231.38 61.5498 229.25 61.5498H204.66C200.4 61.5498 196.93 58.0898 196.93 53.8098C196.93 51.6698 197.8 49.7499 199.19 48.3499C200.59 46.9499 202.53 46.0898 204.65 46.0898H229.24C233.51 46.0898 236.97 49.5599 236.97 53.8199Z" fill="url(#paint3_linear_251_1566)"/>
<path d="M791.16 0.00976562H575.14C574.33 0.00976562 573.55 0.129751 572.81 0.369751H58.8101C56.6801 0.369751 54.7401 1.23974 53.3401 2.63974C51.9401 4.03974 51.0701 5.97976 51.0701 8.09976C51.0701 12.3698 54.5401 15.8398 58.8101 15.8398H85.8401C90.1001 15.8398 93.5701 19.2898 93.5701 23.5698C93.5701 25.6998 92.7001 27.6398 91.3001 29.0398C89.9201 30.4398 87.9701 31.3098 85.8401 31.3098H62.9301C60.8001 31.3098 58.8701 32.1598 57.4601 33.5598C56.0601 34.9698 55.2101 36.8898 55.2101 39.0298C55.2101 43.2998 58.6601 46.7598 62.9401 46.7598H107.44C111.71 46.7598 115.17 50.2298 115.17 54.4998C115.17 56.6298 114.3 58.5598 112.92 59.9698C111.52 61.3698 109.58 62.2198 107.45 62.2198H17.0901C14.9401 62.2198 13.0201 63.0897 11.6201 64.4897C10.2201 65.8897 9.3501 67.8197 9.3501 69.9497C9.3501 74.2197 12.8201 77.6898 17.0901 77.6898H202.85C202.9 77.6898 202.94 77.7097 202.99 77.7097H269.83C314.54 77.7097 402.33 105.61 402.33 235.27V192.6C402.33 128.74 454.09 76.9797 517.96 76.9797H531.1C531.83 77.2097 532.62 77.3398 533.43 77.3398H749.45C751.6 77.3398 753.52 76.4698 754.92 75.0698C756.32 73.6698 757.19 71.7397 757.19 69.6097C757.19 65.3397 753.72 61.8698 749.45 61.8698H722.42C718.16 61.8698 714.69 58.4197 714.69 54.1397C714.69 52.0097 715.56 50.0697 716.96 48.6697C718.36 47.2697 720.29 46.3997 722.42 46.3997H745.33C747.46 46.3997 749.4 45.5397 750.8 44.1497C752.2 42.7497 753.07 40.8197 753.07 38.6797C753.07 34.4197 749.6 30.9497 745.33 30.9497H700.83C696.56 30.9497 693.1 27.4797 693.1 23.2097C693.1 21.0797 693.97 19.1498 695.35 17.7498C696.76 16.3498 698.69 15.4797 700.82 15.4797H791.18C793.33 15.4797 795.25 14.6097 796.65 13.2297C798.05 11.8197 798.92 9.88977 798.92 7.75977C798.9 3.46977 795.44 0.00976562 791.16 0.00976562ZM144.67 23.5598C144.67 21.4298 145.54 19.4998 146.92 18.0898C148.32 16.6898 150.26 15.8398 152.39 15.8398H199.05C203.32 15.8398 206.78 19.2898 206.78 23.5698C206.78 25.6998 205.91 27.6398 204.51 29.0398C203.11 30.4398 201.18 31.3098 199.05 31.3098H152.39C148.14 31.2998 144.67 27.8298 144.67 23.5598ZM234.71 59.2898C233.31 60.6898 231.38 61.5598 229.25 61.5598H204.66C200.39 61.5598 196.93 58.0898 196.93 53.8198C196.93 51.6898 197.78 49.7598 199.18 48.3498C200.58 46.9698 202.52 46.0998 204.65 46.0998H229.24C233.5 46.0998 236.97 49.5697 236.97 53.8297C236.97 55.9497 236.1 57.8998 234.71 59.2898Z" fill="#7DBCFD"/>
<path d="M830.96 77.69C843.773 77.69 854.16 67.303 854.16 54.49C854.16 41.677 843.773 31.29 830.96 31.29C818.147 31.29 807.76 41.677 807.76 54.49C807.76 67.303 818.147 77.69 830.96 77.69Z" fill="#0024D6"/>
<path d="M798.9 7.75C798.9 9.88 798.03 11.81 796.63 13.22C795.23 14.6 793.3 15.47 791.16 15.47H700.8C698.67 15.47 696.74 16.34 695.33 17.74C693.95 19.14 693.08 21.07 693.08 23.2C693.08 27.47 696.53 30.94 700.81 30.94H745.31C749.58 30.94 753.05 34.41 753.05 38.67C753.05 40.82 752.18 42.74 750.78 44.14C749.38 45.54 747.44 46.39 745.31 46.39H722.4C720.27 46.39 718.34 47.26 716.94 48.66C715.54 50.06 714.67 52 714.67 54.13C714.67 58.4 718.14 61.86 722.4 61.86H749.43C753.7 61.86 757.17 65.33 757.17 69.6C757.17 71.73 756.3 73.66 754.9 75.06C753.5 76.46 751.57 77.33 749.43 77.33H533.41C532.6 77.33 531.81 77.21 531.08 76.97H517.94C454.07 76.97 402.31 128.73 402.31 192.59V235.26C402.31 105.6 314.52 77.7 269.81 77.7H202.97C202.92 77.7 202.88 77.68 202.83 77.68H17.0701C12.8001 77.68 9.33008 74.21 9.33008 69.94C9.33008 67.81 10.2001 65.88 11.6001 64.48C13.0001 63.08 14.9301 62.21 17.0701 62.21H107.43C109.56 62.21 111.5 61.35 112.9 59.96C114.28 58.55 115.15 56.62 115.15 54.49C115.15 50.22 111.7 46.75 107.42 46.75H62.9201C58.6501 46.75 55.1901 43.3 55.1901 39.02C55.1901 36.87 56.0401 34.96 57.4401 33.55C58.8501 32.15 60.7801 31.3 62.9101 31.3H85.8201C87.9501 31.3 89.8901 30.43 91.2801 29.03C92.6801 27.63 93.5501 25.69 93.5501 23.56C93.5501 19.29 90.0801 15.83 85.8201 15.83H58.7901C54.5201 15.83 51.0501 12.36 51.0501 8.09C51.0501 5.98 51.9201 4.03 53.3201 2.63C54.7201 1.23 56.6601 0.359985 58.7901 0.359985H572.8C573.55 0.129985 574.32 0 575.13 0H791.15C795.44 0.01 798.9 3.47 798.9 7.75Z" fill="url(#paint4_linear_251_1566)"/>
<path d="M208.24 77.6999C217.42 76.9099 226.6 76.4299 235.78 76.0099C244.96 75.5799 254.14 75.3099 263.32 75.0599L270.21 74.9399C272.55 74.9699 274.9 74.9199 277.24 75.0699C281.93 75.2099 286.61 75.7599 291.25 76.4699C300.53 77.9699 309.65 80.4699 318.36 84.0099L320 84.6599L321.61 85.3699L324.83 86.7999C326.93 87.8499 329.06 88.8399 331.11 89.9899C335.27 92.1799 339.24 94.6999 343.1 97.3599C346.97 100.01 350.63 102.95 354.21 105.97C357.72 109.07 361.07 112.35 364.23 115.79C376.84 129.58 386.27 146.22 391.08 164C383.97 147.04 373.7 131.7 360.87 119.02C354.43 112.71 347.43 107 339.91 102.09C332.38 97.2199 324.41 93.0199 316.07 89.7299C311.92 88.0399 307.65 86.6799 303.36 85.4099C301.2 84.8399 299.04 84.2199 296.85 83.7699C294.67 83.2299 292.47 82.8399 290.27 82.4199C289.17 82.1999 288.06 82.0799 286.95 81.8999C285.84 81.7399 284.74 81.5499 283.62 81.4499L280.28 81.0599C279.17 80.9399 278.05 80.8799 276.93 80.7899C274.7 80.5799 272.45 80.5599 270.21 80.4699L263.33 80.3399C254.15 80.0799 244.97 79.8199 235.79 79.3899C226.6 78.9699 217.42 78.4799 208.24 77.6999Z" fill="white"/>
<path d="M151.28 85.5201C230.555 85.5201 294.82 81.0564 294.82 75.5501C294.82 70.0438 230.555 65.5801 151.28 65.5801C72.005 65.5801 7.73999 70.0438 7.73999 75.5501C7.73999 81.0564 72.005 85.5201 151.28 85.5201Z" fill="url(#paint5_radial_251_1566)"/>
<path d="M359.02 706.79C353.41 710.46 301.77 641.5 243.68 552.75C185.59 464 143.05 389.08 148.67 385.4C154.28 381.73 205.92 450.69 264.01 539.44C322.09 628.19 364.63 703.12 359.02 706.79Z" fill="url(#paint6_radial_251_1566)"/>
<defs>
<linearGradient id="paint0_linear_251_1566" x1="144.667" y1="23.5592" x2="206.786" y2="23.5592" gradientUnits="userSpaceOnUse">
<stop stop-color="#006AFF"/>
<stop offset="1" stop-color="#0024D6"/>
</linearGradient>
<linearGradient id="paint1_linear_251_1566" x1="418.151" y1="670.451" x2="405.391" y2="96.278" gradientUnits="userSpaceOnUse">
<stop stop-color="#006AFF"/>
<stop offset="1" stop-color="#0009BE"/>
</linearGradient>
<linearGradient id="paint2_linear_251_1566" x1="418.151" y1="670.451" x2="405.391" y2="96.278" gradientUnits="userSpaceOnUse">
<stop stop-color="white" stop-opacity="0"/>
<stop offset="1"/>
</linearGradient>
<linearGradient id="paint3_linear_251_1566" x1="196.925" y1="53.8265" x2="236.973" y2="53.8265" gradientUnits="userSpaceOnUse">
<stop stop-color="#006AFF"/>
<stop offset="1" stop-color="#0024D6"/>
</linearGradient>
<linearGradient id="paint4_linear_251_1566" x1="223.677" y1="119.91" x2="657.496" y2="-25.9116" gradientUnits="userSpaceOnUse">
<stop stop-color="#006AFF"/>
<stop offset="1" stop-color="#0024D6"/>
</linearGradient>
<radialGradient id="paint5_radial_251_1566" cx="0" cy="0" r="1" gradientUnits="userSpaceOnUse" gradientTransform="translate(151.276 75.0238) scale(143.537 9.96865)">
<stop stop-color="white"/>
<stop offset="1" stop-color="white" stop-opacity="0"/>
</radialGradient>
<radialGradient id="paint6_radial_251_1566" cx="0" cy="0" r="1" gradientTransform="matrix(105.176 160.694 -10.1636 6.65133 253.836 546.129)" gradientUnits="userSpaceOnUse">
<stop stop-color="white"/>
<stop offset="1" stop-color="white" stop-opacity="0"/>
</radialGradient>
</defs>
</svg>
